<svg width="99" height="36" viewBox="0 0 99 36" fill="none" xmlns="http://www.w3.org/2000/svg">
<path d="M43.512 9.32V19.952C43.512 21.216 43.84 22.168 44.496 22.808C45.168 23.448 46.096 23.768 47.28 23.768C48.48 23.768 49.408 23.448 50.064 22.808C50.736 22.168 51.072 21.216 51.072 19.952V9.32H53.808V19.904C53.808 21.264 53.512 22.416 52.92 23.36C52.328 24.304 51.536 25.008 50.544 25.472C49.552 25.936 48.456 26.168 47.256 26.168C46.056 26.168 44.96 25.936 43.968 25.472C42.992 25.008 42.216 24.304 41.64 23.36C41.064 22.416 40.776 21.264 40.776 19.904V9.32H43.512ZM62.1703 26.216C61.1303 26.216 60.1943 26.032 59.3623 25.664C58.5463 25.28 57.8983 24.768 57.4183 24.128C56.9383 23.472 56.6823 22.744 56.6503 21.944H59.4823C59.5303 22.504 59.7943 22.976 60.2743 23.36C60.7703 23.728 61.3863 23.912 62.1223 23.912C62.8903 23.912 63.4823 23.768 63.8983 23.48C64.3303 23.176 64.5463 22.792 64.5463 22.328C64.5463 21.832 64.3063 21.464 63.8263 21.224C63.3623 20.984 62.6183 20.72 61.5943 20.432C60.6023 20.16 59.7943 19.896 59.1703 19.64C58.5463 19.384 58.0023 18.992 57.5383 18.464C57.0903 17.936 56.8663 17.24 56.8663 16.376C56.8663 15.672 57.0743 15.032 57.4903 14.456C57.9063 13.864 58.4983 13.4 59.2663 13.064C60.0503 12.728 60.9463 12.56 61.9543 12.56C63.4583 12.56 64.6663 12.944 65.5783 13.712C66.5063 14.464 67.0023 15.496 67.0663 16.808H64.3303C64.2823 16.216 64.0423 15.744 63.6103 15.392C63.1783 15.04 62.5943 14.864 61.8583 14.864C61.1383 14.864 60.5863 15 60.2023 15.272C59.8183 15.544 59.6263 15.904 59.6263 16.352C59.6263 16.704 59.7543 17 60.0103 17.24C60.2663 17.48 60.5783 17.672 60.9463 17.816C61.3143 17.944 61.8583 18.112 62.5783 18.32C63.5383 18.576 64.3223 18.84 64.9303 19.112C65.5543 19.368 66.0903 19.752 66.5383 20.264C66.9863 20.776 67.2183 21.456 67.2343 22.304C67.2343 23.056 67.0263 23.728 66.6103 24.32C66.1943 24.912 65.6023 25.376 64.8343 25.712C64.0823 26.048 63.1943 26.216 62.1703 26.216ZM82.3106 19.064C82.3106 19.56 82.2786 20.008 82.2146 20.408H72.1106C72.1906 21.464 72.5826 22.312 73.2866 22.952C73.9906 23.592 74.8546 23.912 75.8786 23.912C77.3506 23.912 78.3906 23.296 78.9986 22.064H81.9506C81.5506 23.28 80.8226 24.28 79.7666 25.064C78.7266 25.832 77.4306 26.216 75.8786 26.216C74.6146 26.216 73.4786 25.936 72.4706 25.376C71.4786 24.8 70.6946 24 70.1186 22.976C69.5586 21.936 69.2786 20.736 69.2786 19.376C69.2786 18.016 69.5506 16.824 70.0946 15.8C70.6546 14.76 71.4306 13.96 72.4226 13.4C73.4306 12.84 74.5826 12.56 75.8786 12.56C77.1266 12.56 78.2386 12.832 79.2146 13.376C80.1906 13.92 80.9506 14.688 81.4946 15.68C82.0386 16.656 82.3106 17.784 82.3106 19.064ZM79.4546 18.2C79.4386 17.192 79.0786 16.384 78.3746 15.776C77.6706 15.168 76.7986 14.864 75.7586 14.864C74.8146 14.864 74.0066 15.168 73.3346 15.776C72.6626 16.368 72.2626 17.176 72.1346 18.2H79.4546ZM87.7391 9.32V26H85.0031V9.32H87.7391ZM94.5233 15.008V22.328C94.5233 22.824 94.6353 23.184 94.8593 23.408C95.0993 23.616 95.4993 23.72 96.0593 23.72H97.7393V26H95.5793C94.3473 26 93.4033 25.712 92.7473 25.136C92.0913 24.56 91.7633 23.624 91.7633 22.328V15.008H90.2033V12.776H91.7633V9.488H94.5233V12.776H97.7393V15.008H94.5233Z" fill="#FAF8FF"/>
<path d="M0 9C0 5.68629 2.68629 3 6 3H24C27.3137 3 30 5.68629 30 9V27C30 30.3137 27.3137 33 24 33H6C2.68629 33 0 30.3137 0 27V9Z" fill="#FAF8FF"/>
<path d="M11 12.2109C11 12.1463 11.0779 12.1136 11.1241 12.1589V12.1589C11.9413 12.961 13.3218 12.5519 13.5702 11.4341L13.7983 10.4076C13.8248 10.2885 14.0001 10.3077 14.0001 10.4298L14.0004 12.3379V23.7073C14.0004 23.8579 13.8783 23.98 13.7277 23.98V23.98C12.2214 23.98 11.0004 22.759 11.0003 21.2527L11 12.2109Z" fill="#130A1D"/>
<path d="M16.7002 11.5C16.7002 10.6716 17.3718 10 18.2002 10V10C19.0286 10 19.7002 10.6716 19.7002 11.5V12.3412V22.5C19.7002 23.3284 19.0286 24 18.2002 24V24C17.3718 24 16.7002 23.3284 16.7002 22.5V11.5Z" fill="#130A1D"/>
<rect x="13" y="21.05" width="3" height="2.9" rx="1.45" fill="#130A1D"/>
<path d="M14.7002 22.5C14.7002 21.6716 15.3718 21 16.2002 21H18.2002C19.0286 21 19.7002 21.6716 19.7002 22.5V22.5V22.5C19.7002 23.3284 19.0286 24 18.2002 24H17.2002H15.9502H15.3252H15.0127V24C14.8401 24 14.7002 23.8601 14.7002 23.6875V22.5Z" fill="#130A1D"/>
<rect x="10.9004" y="9.3999" width="2.5" height="2.5" rx="1.25" fill="#130A1D"/>
<path d="M13 19V19C14.3807 20.3807 16.6193 20.3807 18 19V19V22H13V19Z" fill="#130A1D"/>
<path d="M13.5 23.46H16.5V23.7925C16.5 23.8964 16.4165 23.9811 16.3125 23.9825L15 24L13.6868 23.9779C13.5831 23.9762 13.5 23.8916 13.5 23.7879V23.46Z" fill="#130A1D"/>
</svg>
