<svg width="200" height="76" viewBox="0 0 200 76" fill="none" xmlns="http://www.w3.org/2000/svg">
<rect x="7.05176" y="15.3276" width="45.5128" height="45.3445" rx="6" fill="#2166C1"/>
<path d="M22.2227 25.7688C22.2227 25.6385 22.3809 25.5741 22.4719 25.6674C24.0919 27.3289 26.91 26.5136 27.3926 24.2438L27.8739 21.9809C27.9256 21.7377 28.2835 21.7753 28.2835 22.0239L28.2841 26.0468V50.0736C28.2841 50.3779 28.0374 50.6246 27.7331 50.6246C24.6902 50.6246 22.2234 48.1578 22.2233 45.1149L22.2227 25.7688Z" fill="white"/>
<path d="M33.7373 24.1414C33.7373 22.4678 35.094 21.1111 36.7676 21.1111C38.4412 21.1111 39.7979 22.4678 39.7979 24.1414V26.0535V47.6363C39.7979 49.3099 38.4412 50.6666 36.7676 50.6666C35.094 50.6666 33.7373 49.3099 33.7373 47.6363V24.1414Z" fill="white"/>
<rect x="26.2627" y="44.439" width="6.06061" height="6.12222" rx="3.0303" fill="white"/>
<path d="M29.6973 47.4999C29.6973 45.751 31.115 44.3333 32.8639 44.3333H36.6316C38.3805 44.3333 39.7983 45.751 39.7983 47.4999C39.7983 49.2488 38.3805 50.6666 36.6316 50.6666H34.7478H32.2225H30.9599H30.3286C29.9799 50.6666 29.6973 50.3839 29.6973 50.0353V47.4999Z" fill="white"/>
<rect x="22.0205" y="19.8445" width="5.0505" height="5.27778" rx="2.52525" fill="white"/>
<path d="M26.2627 40.1111C29.0153 42.9876 33.6111 42.9876 36.3637 40.1111V46.4444H26.2627V40.1111Z" fill="white"/>
<path d="M27.2725 49.5266H33.3331V50.437C33.3331 50.5409 33.2496 50.6256 33.1457 50.627L30.3028 50.6667L27.4591 50.6167C27.3555 50.6149 27.2725 50.5303 27.2725 50.4267V49.5266Z" fill="white"/>
<path d="M67.1352 24.5276V42.2476C67.1352 44.3543 67.6819 45.941 68.7752 47.0076C69.8952 48.0743 71.4419 48.6076 73.4152 48.6076C75.4152 48.6076 76.9619 48.0743 78.0552 47.0076C79.1752 45.941 79.7352 44.3543 79.7352 42.2476V24.5276H84.2952V42.1676C84.2952 44.4343 83.8019 46.3543 82.8152 47.9276C81.8286 49.501 80.5086 50.6743 78.8552 51.4476C77.2019 52.221 75.3752 52.6076 73.3752 52.6076C71.3752 52.6076 69.5486 52.221 67.8952 51.4476C66.2686 50.6743 64.9752 49.501 64.0152 47.9276C63.0552 46.3543 62.5752 44.4343 62.5752 42.1676V24.5276H67.1352ZM98.2324 52.6876C96.4991 52.6876 94.9391 52.381 93.5524 51.7676C92.1924 51.1276 91.1124 50.2743 90.3124 49.2076C89.5124 48.1143 89.0858 46.901 89.0324 45.5676H93.7524C93.8324 46.501 94.2724 47.2876 95.0724 47.9276C95.8991 48.541 96.9258 48.8476 98.1524 48.8476C99.4324 48.8476 100.419 48.6076 101.112 48.1276C101.832 47.621 102.192 46.981 102.192 46.2076C102.192 45.381 101.792 44.7676 100.992 44.3676C100.219 43.9676 98.9791 43.5276 97.2724 43.0476C95.6191 42.5943 94.2724 42.1543 93.2324 41.7276C92.1924 41.301 91.2858 40.6476 90.5124 39.7676C89.7658 38.8876 89.3924 37.7276 89.3924 36.2876C89.3924 35.1143 89.7391 34.0476 90.4324 33.0876C91.1258 32.101 92.1124 31.3276 93.3924 30.7676C94.6991 30.2076 96.1924 29.9276 97.8724 29.9276C100.379 29.9276 102.392 30.5676 103.912 31.8476C105.459 33.101 106.286 34.821 106.392 37.0076H101.832C101.752 36.021 101.352 35.2343 100.632 34.6476C99.9124 34.061 98.9391 33.7676 97.7124 33.7676C96.5124 33.7676 95.5924 33.9943 94.9524 34.4476C94.3124 34.901 93.9924 35.501 93.9924 36.2476C93.9924 36.8343 94.2058 37.3276 94.6324 37.7276C95.0591 38.1276 95.5791 38.4476 96.1924 38.6876C96.8058 38.901 97.7124 39.181 98.9124 39.5276C100.512 39.9543 101.819 40.3943 102.832 40.8476C103.872 41.2743 104.766 41.9143 105.512 42.7676C106.259 43.621 106.646 44.7543 106.672 46.1676C106.672 47.421 106.326 48.541 105.632 49.5276C104.939 50.5143 103.952 51.2876 102.672 51.8476C101.419 52.4076 99.9391 52.6876 98.2324 52.6876ZM131.8 40.7676C131.8 41.5943 131.746 42.341 131.64 43.0076H114.8C114.933 44.7676 115.586 46.181 116.76 47.2476C117.933 48.3143 119.373 48.8476 121.08 48.8476C123.533 48.8476 125.266 47.821 126.28 45.7676H131.2C130.533 47.7943 129.32 49.461 127.56 50.7676C125.826 52.0476 123.666 52.6876 121.08 52.6876C118.973 52.6876 117.08 52.221 115.4 51.2876C113.746 50.3276 112.44 48.9943 111.48 47.2876C110.546 45.5543 110.08 43.5543 110.08 41.2876C110.08 39.021 110.533 37.0343 111.44 35.3276C112.373 33.5943 113.666 32.261 115.32 31.3276C117 30.3943 118.92 29.9276 121.08 29.9276C123.16 29.9276 125.013 30.381 126.64 31.2876C128.266 32.1943 129.533 33.4743 130.44 35.1276C131.346 36.7543 131.8 38.6343 131.8 40.7676ZM127.04 39.3276C127.013 37.6476 126.413 36.301 125.24 35.2876C124.066 34.2743 122.613 33.7676 120.88 33.7676C119.306 33.7676 117.96 34.2743 116.84 35.2876C115.72 36.2743 115.053 37.621 114.84 39.3276H127.04ZM140.847 24.5276V52.3276H136.287V24.5276H140.847ZM152.154 34.0076V46.2076C152.154 47.0343 152.341 47.6343 152.714 48.0076C153.114 48.3543 153.781 48.5276 154.714 48.5276H157.514V52.3276H153.914C151.861 52.3276 150.287 51.8476 149.194 50.8876C148.101 49.9276 147.554 48.3676 147.554 46.2076V34.0076H144.954V30.2876H147.554V24.8076H152.154V30.2876H157.514V34.0076H152.154Z" fill="white"/>
</svg>
