<svg width="312" height="119" viewBox="0 0 312 119" fill="none" xmlns="http://www.w3.org/2000/svg">
<rect x="11" y="24" width="71" height="71" rx="6" fill="#2166C1"/>
<path d="M34.667 40.3471C34.667 40.1439 34.914 40.0437 35.0556 40.1894V40.1894C37.5787 42.7868 41.9788 41.5164 42.7293 37.974L43.4826 34.4185C43.5631 34.0388 44.1219 34.0973 44.122 34.4854L44.1228 40.7837V78.4077C44.1228 78.8824 43.738 79.2673 43.2633 79.2673V79.2673C38.5164 79.2673 34.6682 75.4192 34.668 70.6723L34.667 40.3471Z" fill="white"/>
<path d="M53.5762 49.4525C53.5762 46.786 55.7379 44.6245 58.4044 44.6248L58.7494 44.6248C60.402 44.625 61.9069 45.5761 62.6162 47.0687V47.0687C62.8891 47.643 63.0307 48.2708 63.0307 48.9066V59.7303C63.0307 62.3411 60.9142 64.4576 58.3034 64.4576V64.4576C55.6926 64.4576 53.5762 62.3411 53.5762 59.7303V49.4525Z" fill="white"/>
<rect x="40.9697" y="69.582" width="9.45455" height="9.58611" rx="4.72727" fill="white"/>
<rect x="47.2725" y="69.4167" width="9.13939" height="9.88361" rx="4.5697" fill="white"/>
<rect x="34.3525" y="31.0723" width="7.87879" height="8.26389" rx="3.93939" fill="white"/>
<rect x="39.3936" y="69.4167" width="12.6061" height="3.30556" fill="white"/>
<path d="M42.5459 77.5483H52.0004V79.0799C52.0004 79.1838 51.917 79.2684 51.8131 79.2699L47.2732 79.3335L42.7325 79.2533C42.6289 79.2515 42.5459 79.167 42.5459 79.0633V77.5483Z" fill="white"/>
<path d="M102.4 44.25V66.4C102.4 69.0333 103.083 71.0167 104.45 72.35C105.85 73.6833 107.783 74.35 110.25 74.35C112.75 74.35 114.683 73.6833 116.05 72.35C117.45 71.0167 118.15 69.0333 118.15 66.4V44.25H123.85V66.3C123.85 69.1333 123.233 71.5333 122 73.5C120.767 75.4667 119.117 76.9333 117.05 77.9C114.983 78.8667 112.7 79.35 110.2 79.35C107.7 79.35 105.417 78.8667 103.35 77.9C101.317 76.9333 99.7 75.4667 98.5 73.5C97.3 71.5333 96.7 69.1333 96.7 66.3V44.25H102.4ZM141.271 79.45C139.105 79.45 137.155 79.0667 135.421 78.3C133.721 77.5 132.371 76.4333 131.371 75.1C130.371 73.7333 129.838 72.2167 129.771 70.55H135.671C135.771 71.7167 136.321 72.7 137.321 73.5C138.355 74.2667 139.638 74.65 141.171 74.65C142.771 74.65 144.005 74.35 144.871 73.75C145.771 73.1167 146.221 72.3167 146.221 71.35C146.221 70.3167 145.721 69.55 144.721 69.05C143.755 68.55 142.205 68 140.071 67.4C138.005 66.8333 136.321 66.2833 135.021 65.75C133.721 65.2167 132.588 64.4 131.621 63.3C130.688 62.2 130.221 60.75 130.221 58.95C130.221 57.4833 130.655 56.15 131.521 54.95C132.388 53.7167 133.621 52.75 135.221 52.05C136.855 51.35 138.721 51 140.821 51C143.955 51 146.471 51.8 148.371 53.4C150.305 54.9667 151.338 57.1167 151.471 59.85H145.771C145.671 58.6167 145.171 57.6333 144.271 56.9C143.371 56.1667 142.155 55.8 140.621 55.8C139.121 55.8 137.971 56.0833 137.171 56.65C136.371 57.2167 135.971 57.9667 135.971 58.9C135.971 59.6333 136.238 60.25 136.771 60.75C137.305 61.25 137.955 61.65 138.721 61.95C139.488 62.2167 140.621 62.5667 142.121 63C144.121 63.5333 145.755 64.0833 147.021 64.65C148.321 65.1833 149.438 65.9833 150.371 67.05C151.305 68.1167 151.788 69.5333 151.821 71.3C151.821 72.8667 151.388 74.2667 150.521 75.5C149.655 76.7333 148.421 77.7 146.821 78.4C145.255 79.1 143.405 79.45 141.271 79.45ZM183.23 64.55C183.23 65.5833 183.164 66.5167 183.03 67.35H161.98C162.147 69.55 162.964 71.3167 164.43 72.65C165.897 73.9833 167.697 74.65 169.83 74.65C172.897 74.65 175.064 73.3667 176.33 70.8H182.48C181.647 73.3333 180.13 75.4167 177.93 77.05C175.764 78.65 173.064 79.45 169.83 79.45C167.197 79.45 164.83 78.8667 162.73 77.7C160.664 76.5 159.03 74.8333 157.83 72.7C156.664 70.5333 156.08 68.0333 156.08 65.2C156.08 62.3667 156.647 59.8833 157.78 57.75C158.947 55.5833 160.564 53.9167 162.63 52.75C164.73 51.5833 167.13 51 169.83 51C172.43 51 174.747 51.5667 176.78 52.7C178.814 53.8333 180.397 55.4333 181.53 57.5C182.664 59.5333 183.23 61.8833 183.23 64.55ZM177.28 62.75C177.247 60.65 176.497 58.9667 175.03 57.7C173.564 56.4333 171.747 55.8 169.58 55.8C167.614 55.8 165.93 56.4333 164.53 57.7C163.13 58.9333 162.297 60.6167 162.03 62.75H177.28ZM194.54 44.25V79H188.84V44.25H194.54ZM208.673 56.1V71.35C208.673 72.3833 208.907 73.1333 209.373 73.6C209.873 74.0333 210.707 74.25 211.873 74.25H215.373V79H210.873C208.307 79 206.34 78.4 204.973 77.2C203.607 76 202.923 74.05 202.923 71.35V56.1H199.673V51.45H202.923V44.6H208.673V51.45H215.373V56.1H208.673Z" fill="white"/>
</svg>
